# xmcd CD database file
#
# Track frame offsets:
#	150
#	27007
#	57084
#	89917
#	120215
#	157859
#	193450
#	219795
#	259307
#	292811
#
# Disc length: 4090 seconds
#
# Revision: 0
# Processed by: cddbd v1.5PL3 Copyright (c) Steve Scherf et al.
# Submitted via: CDex 1.50
#
DISCID=840ff80a
DTITLE=Steve Haines Quintet - Beginner's Mind
DYEAR=2002
DGENRE=Jazz
TTITLE0=The North Shore
TTITLE1=Sometimes I Feel Like A Motherless Child
TTITLE2=Colorado
TTITLE3=Stronger Then Dirt
TTITLE4=End Of A Love Story
TTITLE5=Shoshin
TTITLE6=Everybody Loves Ruby
TTITLE7=As Stacey Sleeps
TTITLE8=Good Morning Heartache
TTITLE9=Spring Is Here
EXTD=YEAR: 2002
EXTT0=
EXTT1=
EXTT2=
EXTT3=
EXTT4=
EXTT5=
EXTT6=
EXTT7=
EXTT8=
EXTT9=
PLAYORDER=
